# xmcd CD database file
#
# Track frame offsets:
#	150
#	12680
#	28233
#	42894
#	56804
#	69095
#	81590
#	92865
#	104652
#	118276
#	134614
#	152691
#	165947
#	178577
#	194722
#	207774
#	231587
#	248508
#	264328
#	277535
#	291868
#
# Disc length: 4101 seconds
#
# Revision: 2
# Processed by: cddbd v1.5.2PL0 Copyright (c) Steve Scherf et al.
# Submitted via: CDex 1.70beta2
#
DISCID=36100315
DTITLE=Various Artist - Bir Zamanlar 3
DYEAR=2007
DGENRE=Pop
TTITLE0=Ajda Pekkan - Yere Bakan Yürek Yakan
TTITLE1=Seyyal Taner - Son Verdim Kalbimin İşine
TTITLE2=Sevda Karaca - Tanımazsın Beni
TTITLE3=Yasemin Kumral - Bim Bam Bom
TTITLE4=Füsun Önal - Senden Başka
TTITLE5=Güzin ile Baha - Gençlik Başımda Duman
TTITLE6=Sezen Aksu - Seni Gidi Vurdumduymaz
TTITLE7=İbo - Benim Balonlarım Vardı
TTITLE8=Ayça ve Elma Şekerleri - Küçük Kız
TTITLE9=Atilla Atasoy and Ayşe Mine - Birgün Beni Ararsan
TTITLE10=Coşkun Demir - Sen Bensiz Ben Sensiz
TTITLE11=Nil Burak - Gözünüz Aydın
TTITLE12=Nükhet Duru - Söyletme Beni
TTITLE13=Ayla Dikmen - Anlamazdın
TTITLE14=Ersan Erdura - Çocuk Gözler
TTITLE15=Tülay Özer - Büklüm Büklüm
TTITLE16=Behiye Aksoy - Kara Sevda
TTITLE17=Salim Dündar - Aynalar
TTITLE18=Cumhur - Sen Aslı'dan da Güzelsin
TTITLE19=Nazan Şoray - Hal Hal
TTITLE20=Aydın Tansel - Günler Aylar
EXTD=YEAR: 2007
EXTT0=
EXTT1=
EXTT2=
EXTT3=
EXTT4=
EXTT5=
EXTT6=
EXTT7=
EXTT8=
EXTT9=
EXTT10=
EXTT11=
EXTT12=
EXTT13=
EXTT14=
EXTT15=
EXTT16=
EXTT17=
EXTT18=
EXTT19=
EXTT20=
PLAYORDER=
